<svg width="32" height="30" viewBox="0 0 32 30" fill="none" xmlns="http://www.w3.org/2000/svg">
<path d="M0.167969 3.91667C0.167969 2.42389 0.167969 1.6775 0.631716 1.21375C1.09546 0.75 1.84185 0.75 3.33464 0.75H28.668C30.1607 0.75 30.9071 0.75 31.3709 1.21375C31.8346 1.6775 31.8346 2.42389 31.8346 3.91667C31.8346 5.40945 31.8346 6.15584 31.3709 6.61959C30.9071 7.08333 30.1607 7.08333 28.668 7.08333H3.33464C1.84185 7.08333 1.09546 7.08333 0.631716 6.61959C0.167969 6.15584 0.167969 5.40945 0.167969 3.91667Z" fill="#F64E2A"/>
<path fill-rule="evenodd" clip-rule="evenodd" d="M28.7771 9.45807C29.0006 9.45815 29.2303 9.45824 29.4596 9.45508V16.583C29.4596 22.5541 29.4596 25.5397 27.6046 27.3947C25.7497 29.2497 22.7641 29.2497 16.793 29.2497H15.2096C9.23851 29.2497 6.25295 29.2497 4.39796 27.3947C2.54297 25.5397 2.54297 22.5541 2.54297 16.583V9.45508C2.77236 9.45824 3.00211 9.45815 3.22561 9.45807H28.7771ZM20.7505 15.3015C21.2398 15.7383 21.2822 16.489 20.8454 16.9782L15.1907 23.3116C14.9654 23.5639 14.6432 23.7082 14.3049 23.7082C13.9666 23.7082 13.6444 23.5639 13.4191 23.3116L11.1572 20.7782C10.7204 20.289 10.7629 19.5383 11.2521 19.1015C11.7413 18.6647 12.492 18.7072 12.9288 19.1965L14.3049 20.7377L19.0738 15.3965C19.5106 14.9072 20.2613 14.8647 20.7505 15.3015Z" fill="#F64E2A"/>
</svg>
