<svg width="24" height="24" viewBox="0 0 24 24" fill="none" xmlns="http://www.w3.org/2000/svg">
<path fill-rule="evenodd" clip-rule="evenodd" d="M23.6673 12.0007C23.6673 18.444 18.444 23.6673 12.0007 23.6673C5.55733 23.6673 0.333984 18.444 0.333984 12.0007C0.333984 5.55733 5.55733 0.333984 12.0007 0.333984C18.444 0.333984 23.6673 5.55733 23.6673 12.0007ZM16.7027 8.46527C17.0444 8.80698 17.0444 9.36099 16.7027 9.7027L10.8694 15.536C10.5277 15.8777 9.97364 15.8777 9.63193 15.536L7.2986 13.2027C6.95689 12.861 6.95689 12.307 7.2986 11.9653C7.64031 11.6236 8.19433 11.6236 8.53604 11.9653L10.2507 13.6799L12.858 11.0726L15.4653 8.46527C15.807 8.12356 16.361 8.12356 16.7027 8.46527Z" fill="#F64E2A"/>
</svg>
