<svg width="30" height="32" viewBox="0 0 30 32" fill="none" xmlns="http://www.w3.org/2000/svg">
<path d="M11.0417 0.166016C9.72999 0.166016 8.66667 1.22934 8.66667 2.54102V4.12435C8.66667 5.43603 9.72999 6.49935 11.0417 6.49935H18.9583C20.27 6.49935 21.3333 5.43603 21.3333 4.12435V2.54102C21.3333 1.22934 20.27 0.166016 18.9583 0.166016H11.0417Z" fill="#F64E2A"/>
<path fill-rule="evenodd" clip-rule="evenodd" d="M6.29167 3.39066C4.29998 3.5024 3.04264 3.81978 2.14124 4.72117C0.75 6.11242 0.75 8.35159 0.75 12.8299V22.3299C0.75 26.8083 0.75 29.0474 2.14124 30.4387C3.53249 31.8299 5.77166 31.8299 10.25 31.8299H19.75C24.2283 31.8299 26.4675 31.8299 27.8588 30.4387C29.25 29.0474 29.25 26.8083 29.25 22.3299V12.8299C29.25 8.35159 29.25 6.11242 27.8588 4.72117C26.9574 3.81978 25.7 3.5024 23.7083 3.39066V4.12435C23.7083 6.7477 21.5817 8.87435 18.9583 8.87435H11.0417C8.41831 8.87435 6.29167 6.7477 6.29167 4.12435V3.39066ZM20.5603 16.8675C21.0397 16.42 21.0656 15.6686 20.6181 15.1891C20.1706 14.7096 19.4192 14.6837 18.9398 15.1312L12.9643 20.7083L11.0603 18.9312C10.5808 18.4837 9.82937 18.5096 9.38188 18.9891C8.93439 19.4686 8.9603 20.22 9.43975 20.6675L12.154 23.2008C12.6103 23.6266 13.3183 23.6266 13.7745 23.2008L20.5603 16.8675Z" fill="#F64E2A"/>
</svg>
