<svg width="44" height="44" viewBox="0 0 44 44" fill="none" xmlns="http://www.w3.org/2000/svg">
<g filter="url(#filter0_f_563_4749)">
<path fill-rule="evenodd" clip-rule="evenodd" d="M10.6186 33.3801C12.5713 35.3327 15.714 35.3327 21.9993 35.3327C28.2847 35.3327 31.4274 35.3327 33.3801 33.3801C35.3327 31.4274 35.3327 28.2847 35.3327 21.9993C35.3327 15.714 35.3327 12.5713 33.3801 10.6186C31.4274 8.66602 28.2847 8.66602 21.9993 8.66602C15.714 8.66602 12.5713 8.66602 10.6186 10.6186C8.66602 12.5713 8.66602 15.714 8.66602 21.9993C8.66602 28.2847 8.66602 31.4274 10.6186 33.3801ZM16.0861 23.4251C15.723 23.009 15.0913 22.9661 14.6751 23.3293C14.259 23.6924 14.2161 24.3241 14.5793 24.7402L18.5793 29.3235C18.8533 29.6376 19.2935 29.7487 19.6838 29.6023C20.0741 29.456 20.3327 29.0829 20.3327 28.666V15.3327C20.3327 14.7804 19.885 14.3327 19.3327 14.3327C18.7804 14.3327 18.3327 14.7804 18.3327 15.3327V25.9993L16.0861 23.4251ZM24.3149 14.3964C23.9246 14.5427 23.666 14.9158 23.666 15.3327L23.666 28.666C23.666 29.2183 24.1137 29.666 24.666 29.666C25.2183 29.666 25.666 29.2183 25.666 28.666L25.666 17.9993L27.9126 20.5735C28.2757 20.9897 28.9074 21.0326 29.3235 20.6694C29.7397 20.3063 29.7826 19.6746 29.4194 19.2585L25.4194 14.6751C25.1453 14.3611 24.7052 14.25 24.3149 14.3964Z" fill="#F64E2A" fill-opacity="0.4"/>
</g>
<path fill-rule="evenodd" clip-rule="evenodd" d="M10.6186 33.3801C12.5713 35.3327 15.714 35.3327 21.9993 35.3327C28.2847 35.3327 31.4274 35.3327 33.3801 33.3801C35.3327 31.4274 35.3327 28.2847 35.3327 21.9993C35.3327 15.714 35.3327 12.5713 33.3801 10.6186C31.4274 8.66602 28.2847 8.66602 21.9993 8.66602C15.714 8.66602 12.5713 8.66602 10.6186 10.6186C8.66602 12.5713 8.66602 15.714 8.66602 21.9993C8.66602 28.2847 8.66602 31.4274 10.6186 33.3801ZM16.0861 23.4251C15.723 23.009 15.0913 22.9661 14.6751 23.3293C14.259 23.6924 14.2161 24.3241 14.5793 24.7402L18.5793 29.3235C18.8533 29.6376 19.2935 29.7487 19.6838 29.6023C20.0741 29.456 20.3327 29.0829 20.3327 28.666V15.3327C20.3327 14.7804 19.885 14.3327 19.3327 14.3327C18.7804 14.3327 18.3327 14.7804 18.3327 15.3327V25.9993L16.0861 23.4251ZM24.3149 14.3964C23.9246 14.5427 23.666 14.9158 23.666 15.3327L23.666 28.666C23.666 29.2183 24.1137 29.666 24.666 29.666C25.2183 29.666 25.666 29.2183 25.666 28.666L25.666 17.9993L27.9126 20.5735C28.2757 20.9897 28.9074 21.0326 29.3235 20.6694C29.7397 20.3063 29.7826 19.6746 29.4194 19.2585L25.4194 14.6751C25.1453 14.3611 24.7052 14.25 24.3149 14.3964Z" fill="#F64E2A"/>
<defs>
<filter id="filter0_f_563_4749" x="0.666016" y="0.666016" width="42.666" height="42.666" filterUnits="userSpaceOnUse" color-interpolation-filters="sRGB">
<feFlood flood-opacity="0" result="BackgroundImageFix"/>
<feBlend mode="normal" in="SourceGraphic" in2="BackgroundImageFix" result="shape"/>
<feGaussianBlur stdDeviation="4" result="effect1_foregroundBlur_563_4749"/>
</filter>
</defs>
</svg>
