<svg width="22" height="22" viewBox="0 0 22 22" fill="none" xmlns="http://www.w3.org/2000/svg">
<path fill-rule="evenodd" clip-rule="evenodd" d="M20.1673 11.0007C20.1673 16.0633 16.0633 20.1673 11.0007 20.1673C5.93804 20.1673 1.83398 16.0633 1.83398 11.0007C1.83398 5.93804 5.93804 1.83398 11.0007 1.83398C16.0633 1.83398 20.1673 5.93804 20.1673 11.0007ZM13.7507 8.25065C13.7507 9.76943 12.5194 11.0007 11.0007 11.0007C9.48187 11.0007 8.25065 9.76943 8.25065 8.25065C8.25065 6.73187 9.48187 5.50065 11.0007 5.50065C12.5194 5.50065 13.7507 6.73187 13.7507 8.25065ZM11.0006 18.7923C12.636 18.7923 14.1537 18.2885 15.407 17.4276C15.9605 17.0473 16.1971 16.323 15.8753 15.7336C15.2081 14.5117 13.8334 13.7507 11.0006 13.7507C8.16787 13.7507 6.79312 14.5117 6.12595 15.7336C5.80411 16.323 6.04066 17.0473 6.59419 17.4275C7.84749 18.2885 9.36522 18.7923 11.0006 18.7923Z" fill="#F64E2A"/>
</svg>
